<svg width="64" height="48" viewBox="0 0 64 48" fill="none" xmlns="http://www.w3.org/2000/svg">
<path d="M62.4988 14H55.015L52.935 8.8C50.7975 3.45375 45.6963 0 39.9375 0H24.0625C18.305 0 13.2025 3.45375 11.0638 8.8L8.98376 14H1.50125C0.525003 14 -0.191247 14.9175 0.0462532 15.8638L0.796254 18.8638C0.962504 19.5312 1.5625 20 2.25125 20H4.76001C3.08125 21.4662 2 23.5975 2 26V32C2 34.015 2.77 35.8337 4.00001 37.2412V44C4.00001 46.2088 5.79126 48 8.00001 48H12C14.2088 48 16 46.2088 16 44V40H48V44C48 46.2088 49.7913 48 52 48H56C58.2088 48 60 46.2088 60 44V37.2412C61.23 35.835 62 34.0163 62 32V26C62 23.5975 60.9188 21.4662 59.2413 20H61.75C62.4388 20 63.0388 19.5312 63.205 18.8638L63.955 15.8638C64.1913 14.9175 63.475 14 62.4988 14ZM18.4913 11.7712C19.4025 9.49375 21.6088 8 24.0625 8H39.9375C42.3913 8 44.5975 9.49375 45.5088 11.7712L48 18H16L18.4913 11.7712ZM12 31.975C9.60001 31.975 8.00001 30.38 8.00001 27.9875C8.00001 25.595 9.60001 24 12 24C14.4 24 18 27.5888 18 29.9813C18 32.3737 14.4 31.975 12 31.975ZM52 31.975C49.6 31.975 46 32.3737 46 29.9813C46 27.5888 49.6 24 52 24C54.4 24 56 25.595 56 27.9875C56 30.38 54.4 31.975 52 31.975Z" fill="white"/>
</svg>
